<?xml version="1.0" standalone="no"?>
<!DOCTYPE svg PUBLIC "-//W3C//DTD SVG 20010904//EN"
 "http://www.w3.org/TR/2001/REC-SVG-20010904/DTD/svg10.dtd">
<svg version="1.0" xmlns="http://www.w3.org/2000/svg"
 width="501.000000pt" height="501.000000pt" viewBox="0 0 501.000000 501.000000"
 preserveAspectRatio="xMidYMid meet">
<metadata>
Created by potrace 1.14, written by Peter Selinger 2001-2017
</metadata>
<g transform="translate(0.000000,501.000000) scale(0.100000,-0.100000)"
fill="#000000" stroke="none">
<path d="M2347 4844 c-4 -4 -42 -11 -85 -15 -74 -8 -114 -14 -232 -38 -89 -17
-142 -32 -185 -50 -22 -10 -60 -23 -85 -31 -25 -7 -49 -17 -54 -22 -6 -4 -16
-8 -24 -8 -22 0 -339 -160 -358 -181 -9 -10 -21 -19 -26 -19 -12 0 -158 -101
-223 -154 -101 -82 -335 -326 -385 -400 -8 -13 -33 -49 -55 -82 -21 -32 -47
-68 -56 -79 -25 -30 -115 -199 -169 -320 -12 -27 -26 -58 -31 -67 -5 -10 -9
-26 -9 -36 0 -10 -4 -22 -9 -27 -8 -9 -15 -30 -42 -122 -5 -18 -14 -50 -20
-70 -13 -47 -26 -108 -40 -193 -6 -36 -15 -90 -21 -120 -5 -30 -12 -155 -15
-277 -5 -233 7 -359 58 -598 5 -27 13 -65 16 -83 3 -18 9 -35 14 -38 5 -3 9
-15 9 -27 0 -12 9 -47 21 -77 11 -30 23 -64 26 -75 2 -11 9 -30 14 -42 5 -13
14 -34 19 -48 32 -80 75 -171 116 -245 43 -77 114 -184 126 -188 4 -2 8 -9 8
-15 0 -7 9 -23 20 -37 116 -146 163 -200 256 -292 60 -59 123 -118 141 -130
155 -110 211 -148 293 -198 52 -32 118 -68 145 -80 28 -12 74 -33 103 -46 29
-13 58 -24 65 -24 7 0 17 -4 23 -9 9 -9 125 -49 204 -70 25 -7 59 -17 76 -22
17 -5 44 -9 62 -9 17 0 33 -4 36 -9 6 -10 25 -13 206 -35 215 -26 526 -17 695
20 39 9 90 20 115 24 49 9 105 23 160 39 19 5 46 13 60 16 14 4 39 13 57 21
17 8 36 14 42 14 6 0 19 4 29 9 9 5 37 18 62 29 156 70 325 158 377 198 17 13
36 24 41 24 6 0 12 4 14 8 2 5 26 23 53 42 131 88 340 297 463 462 25 35 49
65 52 68 9 9 60 89 60 95 0 4 14 27 31 51 17 25 49 85 71 132 22 48 51 112 65
142 38 82 40 88 68 185 15 50 31 100 36 113 5 13 9 34 9 47 0 13 4 26 9 29 5
3 11 23 15 43 3 21 10 65 15 98 26 156 34 255 33 435 -1 253 -24 450 -71 610
-20 70 -30 106 -39 140 -14 55 -53 161 -72 200 -29 56 -90 189 -90 195 0 4
-18 33 -40 65 -22 32 -40 61 -40 64 0 6 -78 121 -116 171 -101 131 -238 275
-360 377 -38 32 -85 71 -105 88 -20 16 -39 30 -42 30 -3 0 -58 34 -121 75 -63
41 -118 75 -121 75 -4 0 -48 20 -98 44 -51 24 -119 53 -152 65 -33 13 -68 27
-77 32 -10 5 -25 9 -33 9 -8 0 -34 9 -58 19 -23 11 -67 25 -97 31 -136 30
-226 47 -315 61 -84 13 -507 23 -518 13z m-590 -603 c48 -22 245 -216 292
-288 17 -27 37 -57 44 -67 33 -52 55 -70 68 -60 41 31 235 59 409 59 157 0
327 -25 397 -58 13 -6 24 -8 26 -6 2 2 19 27 37 54 19 28 38 55 42 60 5 6 27
35 50 65 104 138 250 260 311 260 34 0 97 -59 97 -90 0 -10 4 -20 8 -22 23 -9
53 -101 93 -286 12 -56 12 -337 -1 -399 -32 -164 -33 -154 12 -245 65 -133 81
-184 82 -269 l1 -61 -40 -13 c-76 -24 -235 -65 -254 -65 -11 0 -22 -4 -25 -9
-6 -9 -29 -15 -126 -31 -235 -41 -475 -63 -528 -50 -51 13 -122 57 -122 76 0
8 -4 14 -10 14 -5 0 -10 15 -10 34 0 29 9 42 56 85 30 28 60 51 65 51 12 0 12
47 0 54 -13 9 -306 10 -319 2 -27 -16 -12 -55 36 -92 84 -68 94 -88 68 -139
-33 -64 -138 -102 -249 -90 -34 3 -100 10 -147 15 -93 10 -187 24 -265 40 -27
6 -63 13 -80 16 -16 3 -39 9 -50 14 -11 4 -38 13 -60 19 -22 6 -74 20 -115 32
-41 11 -85 23 -97 26 -12 3 -29 13 -37 22 -16 17 -14 32 15 127 5 17 9 40 9
52 0 11 5 24 10 27 6 3 10 14 10 23 0 9 16 51 36 92 l37 75 -13 70 c-7 39 -15
156 -17 260 -4 153 -1 205 13 270 19 91 71 255 85 270 5 5 9 17 9 27 0 10 5
18 10 18 6 0 10 7 10 15 0 17 32 33 65 34 11 0 39 -8 62 -18z m-833 -1245 c59
-56 119 -109 134 -117 15 -7 54 -30 87 -50 33 -20 78 -44 100 -54 22 -9 68
-30 102 -46 34 -16 68 -29 75 -29 7 0 24 -6 38 -13 14 -7 45 -19 70 -26 25 -7
55 -17 68 -22 13 -5 34 -9 47 -9 13 0 26 -4 29 -9 3 -4 22 -11 43 -14 21 -4
74 -13 118 -22 237 -47 338 -56 685 -62 303 -5 418 0 600 28 91 14 219 38 256
50 17 5 42 9 57 9 14 0 29 5 32 10 3 6 16 10 27 10 23 0 81 17 110 31 10 5 26
9 36 9 10 0 22 4 28 8 5 5 32 17 59 26 75 26 170 66 205 87 8 5 44 25 80 46
36 20 67 39 70 43 3 3 28 22 55 42 43 31 93 79 168 160 38 40 42 21 45 -195 2
-196 1 -209 -20 -254 -29 -63 -190 -223 -288 -288 -87 -58 -278 -153 -371
-184 -35 -12 -73 -26 -84 -31 -251 -104 -893 -183 -1215 -151 -227 23 -306 32
-355 41 -184 33 -303 58 -330 69 -11 5 -40 15 -65 22 -25 7 -49 16 -54 21 -6
4 -18 8 -28 8 -10 0 -26 4 -36 9 -9 5 -48 21 -87 36 -38 15 -81 35 -96 46 -15
10 -31 19 -36 19 -15 0 -63 25 -63 33 0 4 -9 7 -20 7 -11 0 -20 5 -20 10 0 6
-4 10 -10 10 -18 0 -146 94 -208 154 -63 60 -135 148 -159 195 -14 25 -19 421
-6 434 12 13 20 7 127 -97z m-25 -699 c41 -43 104 -97 141 -120 36 -23 74 -48
85 -55 24 -15 145 -74 235 -115 36 -16 72 -32 80 -36 8 -4 62 -20 120 -35 58
-16 130 -37 161 -47 30 -10 67 -19 80 -19 14 0 29 -4 34 -9 6 -5 30 -12 55
-15 25 -3 74 -10 110 -16 299 -47 791 -52 1075 -9 122 18 277 47 315 59 14 4
52 16 85 25 204 57 223 64 275 90 14 7 61 27 105 46 44 18 99 45 122 61 23 15
45 28 48 28 22 0 157 102 225 170 44 44 85 78 90 75 6 -4 10 -93 10 -220 0
-246 3 -237 -104 -358 -58 -65 -222 -197 -245 -197 -6 0 -11 -3 -11 -7 0 -5
-10 -13 -23 -19 -12 -5 -53 -26 -92 -46 -98 -50 -149 -73 -230 -101 -147 -53
-192 -67 -213 -67 -11 0 -23 -4 -26 -9 -3 -5 -20 -11 -38 -14 -18 -3 -53 -10
-78 -16 -128 -27 -151 -31 -375 -63 -104 -15 -567 -15 -670 0 -44 6 -116 16
-160 23 -44 6 -98 15 -120 19 -130 26 -186 39 -260 60 -22 6 -54 15 -70 19
-17 4 -46 15 -65 23 -19 8 -69 28 -110 42 -41 15 -92 36 -113 47 -22 10 -43
19 -47 19 -13 0 -195 110 -226 136 -15 13 -31 24 -35 24 -12 0 -209 198 -209
210 0 6 -9 20 -20 32 -19 20 -20 36 -20 243 0 122 3 225 6 228 10 10 23 -1
103 -86z m-3 -721 c112 -115 317 -241 505 -310 41 -15 82 -31 91 -37 10 -5 25
-9 33 -9 8 0 23 -4 33 -9 59 -30 141 -52 337 -91 33 -6 69 -14 80 -16 40 -10
142 -25 240 -36 133 -16 616 -16 725 -1 109 16 261 43 345 62 22 5 65 14 95
20 70 15 128 31 160 43 14 6 34 14 45 19 11 4 40 15 65 23 117 39 169 61 267
112 97 51 191 108 203 124 3 4 11 9 18 11 7 3 51 42 97 88 58 58 88 82 99 78
14 -6 16 -32 16 -196 l0 -189 -30 -58 c-28 -51 -56 -88 -135 -174 -49 -54
-161 -134 -245 -177 -19 -9 -41 -23 -48 -30 -13 -13 -29 -20 -142 -69 -36 -16
-66 -32 -68 -36 -2 -4 -10 -8 -18 -8 -8 0 -22 -4 -32 -9 -33 -17 -67 -29 -127
-46 -33 -9 -70 -21 -83 -26 -13 -5 -33 -9 -45 -9 -13 0 -27 -4 -33 -8 -5 -5
-36 -14 -69 -21 -33 -7 -76 -16 -95 -21 -19 -5 -69 -14 -110 -20 -41 -6 -100
-15 -130 -21 -87 -16 -509 -23 -645 -10 -182 17 -334 42 -478 77 -15 3 -30 10
-33 15 -3 5 -16 9 -29 9 -13 0 -34 4 -47 9 -13 5 -50 17 -83 27 -33 9 -64 21
-69 26 -6 4 -18 8 -27 8 -9 0 -43 14 -74 30 -31 17 -61 30 -66 30 -12 0 -123
53 -129 61 -3 4 -32 24 -65 43 -163 96 -324 245 -383 357 -20 38 -22 55 -22
233 0 106 3 196 7 199 14 15 31 4 99 -67z"/>
<path d="M2004 3386 c-92 -40 -100 -176 -13 -222 81 -41 179 16 179 106 0 51
-26 89 -76 111 -53 22 -50 22 -90 5z"/>
<path d="M3043 3385 c-18 -8 -42 -29 -53 -47 -52 -86 6 -188 107 -188 49 0
113 66 113 117 0 46 -38 98 -87 118 -42 18 -40 18 -80 0z"/>
<path d="M2524 2341 c-26 -12 -62 -57 -70 -88 -14 -56 52 -123 122 -123 41 0
90 43 98 84 7 38 -10 92 -37 114 -21 17 -86 25 -113 13z"/>
<path d="M2492 1634 c-44 -27 -67 -70 -66 -126 2 -76 83 -135 168 -123 52 8
68 20 95 70 33 63 27 110 -24 160 -50 50 -109 57 -173 19z"/>
<path d="M2550 890 c-66 -12 -100 -49 -100 -108 0 -43 22 -79 61 -102 46 -25
75 -25 117 0 40 25 55 61 49 119 -7 65 -60 103 -127 91z"/>
</g>
</svg>
